<mxfile host="65bd71144e">
    <diagram id="uXBSg-rn626j_wvw7TtW" name="Page-1">
        <mxGraphModel dx="745" dy="611" grid="1" gridSize="10" guides="1" tooltips="1" connect="1" arrows="1" fold="1" page="1" pageScale="1" pageWidth="827" pageHeight="1169" math="0" shadow="0">
            <root>
                <mxCell id="0"/>
                <mxCell id="1" parent="0"/>
                <mxCell id="2" value="Assignment, Project, Exam, Quiz" style="swimlane;childLayout=stackLayout;resizeParent=1;resizeParentMax=0;startSize=20;horizontal=0;horizontalStack=1;fillColor=#B3B3B3;strokeColor=#B3B3B3;fontColor=#FFFFFF;" parent="1" vertex="1">
                    <mxGeometry x="20" y="50" width="460" height="930" as="geometry"/>
                </mxCell>
                <mxCell id="3" value="Professor" style="swimlane;startSize=20;fillColor=#B3B3B3;strokeColor=#B3B3B3;fontColor=#FFFFFF;" parent="2" vertex="1">
                    <mxGeometry x="20" width="200" height="930" as="geometry"/>
                </mxCell>
                <mxCell id="8" style="edgeStyle=none;html=1;exitX=0.5;exitY=1;exitDx=0;exitDy=0;entryX=0.5;entryY=0;entryDx=0;entryDy=0;fontColor=#FFFFFF;strokeColor=#B3B3B3;labelBackgroundColor=#B3B3B3;" parent="3" source="6" target="7" edge="1">
                    <mxGeometry relative="1" as="geometry"/>
                </mxCell>
                <mxCell id="6" value="" style="ellipse;fillColor=#B3B3B3;fontColor=#FFFFFF;strokeColor=#FFFFFF;labelBackgroundColor=#B3B3B3;" parent="3" vertex="1">
                    <mxGeometry x="85" y="40" width="30" height="30" as="geometry"/>
                </mxCell>
                <mxCell id="7" value="Publish Assignment/Project" style="html=1;align=center;verticalAlign=top;rounded=1;absoluteArcSize=1;arcSize=10;dashed=0;fillColor=#B3B3B3;fontColor=#FFFFFF;strokeColor=#FFFFFF;labelBackgroundColor=#B3B3B3;" parent="3" vertex="1">
                    <mxGeometry x="25" y="100" width="150" height="30" as="geometry"/>
                </mxCell>
                <mxCell id="22" style="edgeStyle=none;html=1;exitX=0.5;exitY=1;exitDx=0;exitDy=0;entryX=0.5;entryY=0;entryDx=0;entryDy=0;fontColor=#FFFFFF;strokeColor=#B3B3B3;" parent="3" source="17" target="21" edge="1">
                    <mxGeometry relative="1" as="geometry"/>
                </mxCell>
                <mxCell id="17" value="Submit Score&amp;nbsp;" style="html=1;align=center;verticalAlign=top;rounded=1;absoluteArcSize=1;arcSize=10;dashed=0;fillColor=#B3B3B3;fontColor=#FFFFFF;strokeColor=#B3B3B3;labelBackgroundColor=#B3B3B3;" parent="3" vertex="1">
                    <mxGeometry x="25" y="439" width="150" height="30" as="geometry"/>
                </mxCell>
                <mxCell id="21" value="Comfirm Score&amp;nbsp;" style="html=1;align=center;verticalAlign=top;rounded=1;absoluteArcSize=1;arcSize=10;dashed=0;fillColor=#B3B3B3;strokeColor=#B3B3B3;fontColor=#FFFFFF;" parent="3" vertex="1">
                    <mxGeometry x="25" y="506" width="150" height="30" as="geometry"/>
                </mxCell>
                <mxCell id="45" value="Assignment/Project" style="html=1;verticalAlign=bottom;labelBackgroundColor=#B3B3B3;endArrow=none;endFill=0;endSize=6;align=left;fontColor=#FFFFFF;strokeColor=#B3B3B3;" parent="3" edge="1">
                    <mxGeometry x="-1" relative="1" as="geometry">
                        <mxPoint y="620" as="sourcePoint"/>
                        <mxPoint x="440" y="620" as="targetPoint"/>
                    </mxGeometry>
                </mxCell>
                <mxCell id="52" style="edgeStyle=none;html=1;exitX=0.5;exitY=1;exitDx=0;exitDy=0;entryX=0.5;entryY=0;entryDx=0;entryDy=0;strokeColor=#B3B3B3;fontColor=#FFFFFF;" parent="3" source="48" target="51" edge="1">
                    <mxGeometry relative="1" as="geometry"/>
                </mxCell>
                <mxCell id="48" value="" style="ellipse;strokeColor=#FFFFFF;fillColor=#B3B3B3;fontColor=#FFFFFF;" parent="3" vertex="1">
                    <mxGeometry x="85" y="630" width="30" height="30" as="geometry"/>
                </mxCell>
                <mxCell id="51" value="Publish Exam/Quiz" style="html=1;align=center;verticalAlign=top;rounded=1;absoluteArcSize=1;arcSize=10;dashed=0;fillColor=#B3B3B3;strokeColor=#B3B3B3;fontColor=#FFFFFF;" parent="3" vertex="1">
                    <mxGeometry x="25" y="690" width="150" height="30" as="geometry"/>
                </mxCell>
                <mxCell id="58" style="edgeStyle=none;html=1;exitX=0.5;exitY=1;exitDx=0;exitDy=0;entryX=0.5;entryY=0;entryDx=0;entryDy=0;strokeColor=#B3B3B3;fontColor=#FFFFFF;" parent="3" source="55" target="57" edge="1">
                    <mxGeometry relative="1" as="geometry"/>
                </mxCell>
                <mxCell id="55" value="Submit Score" style="html=1;align=center;verticalAlign=top;rounded=1;absoluteArcSize=1;arcSize=10;dashed=0;fillColor=#B3B3B3;strokeColor=#B3B3B3;fontColor=#FFFFFF;" parent="3" vertex="1">
                    <mxGeometry x="25" y="760" width="150" height="30" as="geometry"/>
                </mxCell>
                <mxCell id="57" value="Comfirm Score&amp;nbsp;" style="html=1;align=center;verticalAlign=top;rounded=1;absoluteArcSize=1;arcSize=10;dashed=0;fillColor=#B3B3B3;strokeColor=#B3B3B3;fontColor=#FFFFFF;" parent="3" vertex="1">
                    <mxGeometry x="25" y="821" width="150" height="30" as="geometry"/>
                </mxCell>
                <mxCell id="63" value="Exam/Quiz" style="text;html=1;strokeColor=none;fillColor=none;align=center;verticalAlign=middle;whiteSpace=wrap;rounded=0;labelBackgroundColor=#B3B3B3;fontColor=#FFFFFF;" parent="3" vertex="1">
                    <mxGeometry x="2" y="906" width="60" height="30" as="geometry"/>
                </mxCell>
                <mxCell id="10" style="edgeStyle=none;html=1;exitX=1;exitY=0.5;exitDx=0;exitDy=0;entryX=0;entryY=0.5;entryDx=0;entryDy=0;fontColor=#FFFFFF;strokeColor=#B3B3B3;labelBackgroundColor=#B3B3B3;" parent="2" source="7" target="9" edge="1">
                    <mxGeometry relative="1" as="geometry"/>
                </mxCell>
                <mxCell id="26" style="edgeStyle=none;html=1;exitX=1;exitY=0.5;exitDx=0;exitDy=0;entryX=0;entryY=0.5;entryDx=0;entryDy=0;fontColor=#FFFFFF;strokeColor=#B3B3B3;" parent="2" source="21" target="25" edge="1">
                    <mxGeometry relative="1" as="geometry"/>
                </mxCell>
                <mxCell id="4" value="Student" style="swimlane;startSize=20;fillColor=#B3B3B3;strokeColor=#B3B3B3;fontColor=#FFFFFF;" parent="2" vertex="1">
                    <mxGeometry x="220" width="240" height="930" as="geometry"/>
                </mxCell>
                <mxCell id="12" style="edgeStyle=none;html=1;exitX=0.5;exitY=1;exitDx=0;exitDy=0;entryX=0.5;entryY=0;entryDx=0;entryDy=0;fontColor=#FFFFFF;strokeColor=#B3B3B3;labelBackgroundColor=#B3B3B3;" parent="4" source="9" target="11" edge="1">
                    <mxGeometry relative="1" as="geometry"/>
                </mxCell>
                <mxCell id="9" value="View the Assignment/Project" style="html=1;align=center;verticalAlign=top;rounded=1;absoluteArcSize=1;arcSize=10;dashed=0;fillColor=#B3B3B3;fontColor=#FFFFFF;strokeColor=#B3B3B3;labelBackgroundColor=#B3B3B3;" parent="4" vertex="1">
                    <mxGeometry x="25" y="100" width="150" height="30" as="geometry"/>
                </mxCell>
                <mxCell id="30" style="edgeStyle=none;html=1;exitX=0.5;exitY=1;exitDx=0;exitDy=0;entryX=0.5;entryY=0;entryDx=0;entryDy=0;fontColor=#FFFFFF;strokeColor=#B3B3B3;labelBackgroundColor=#B3B3B3;" parent="4" source="11" target="13" edge="1">
                    <mxGeometry relative="1" as="geometry"/>
                </mxCell>
                <mxCell id="11" value="Submit Assignment/Project" style="html=1;align=center;verticalAlign=top;rounded=1;absoluteArcSize=1;arcSize=10;dashed=0;fillColor=#B3B3B3;fontColor=#FFFFFF;strokeColor=#B3B3B3;labelBackgroundColor=#B3B3B3;" parent="4" vertex="1">
                    <mxGeometry x="25" y="170" width="150" height="30" as="geometry"/>
                </mxCell>
                <mxCell id="15" value="Deadline meet" style="edgeStyle=none;html=1;exitX=1;exitY=0.5;exitDx=0;exitDy=0;entryX=0.5;entryY=0;entryDx=0;entryDy=0;fontColor=#FFFFFF;fillColor=none;labelBackgroundColor=#B3B3B3;strokeColor=#B3B3B3;" parent="4" source="13" target="14" edge="1">
                    <mxGeometry relative="1" as="geometry">
                        <Array as="points">
                            <mxPoint x="196" y="255"/>
                        </Array>
                    </mxGeometry>
                </mxCell>
                <mxCell id="31" style="edgeStyle=none;html=1;exitX=0.5;exitY=1;exitDx=0;exitDy=0;entryX=0.5;entryY=0;entryDx=0;entryDy=0;fontColor=#FFFFFF;strokeColor=#B3B3B3;labelBackgroundColor=#B3B3B3;" parent="4" source="13" target="18" edge="1">
                    <mxGeometry relative="1" as="geometry"/>
                </mxCell>
                <mxCell id="13" value="" style="rhombus;fillColor=#B3B3B3;strokeColor=#B3B3B3;labelBackgroundColor=#B3B3B3;" parent="4" vertex="1">
                    <mxGeometry x="85" y="240" width="30" height="30" as="geometry"/>
                </mxCell>
                <mxCell id="24" style="edgeStyle=none;html=1;exitX=0.5;exitY=1;exitDx=0;exitDy=0;entryX=0.5;entryY=0;entryDx=0;entryDy=0;fontColor=#FFFFFF;strokeColor=#B3B3B3;" parent="4" source="14" target="25" edge="1">
                    <mxGeometry relative="1" as="geometry">
                        <mxPoint x="195.5" y="410" as="targetPoint"/>
                        <Array as="points">
                            <mxPoint x="196" y="450"/>
                            <mxPoint x="115" y="450"/>
                        </Array>
                    </mxGeometry>
                </mxCell>
                <mxCell id="14" value="Submit Failed" style="html=1;align=center;verticalAlign=top;rounded=1;absoluteArcSize=1;arcSize=10;dashed=0;fillColor=#B3B3B3;fontColor=#FFFFFF;strokeColor=#B3B3B3;" parent="4" vertex="1">
                    <mxGeometry x="153" y="356" width="85" height="30" as="geometry"/>
                </mxCell>
                <mxCell id="38" style="edgeStyle=none;html=1;exitX=0.5;exitY=1;exitDx=0;exitDy=0;entryX=0.5;entryY=0;entryDx=0;entryDy=0;fontColor=#FFFFFF;strokeColor=#B3B3B3;labelBackgroundColor=#B3B3B3;" parent="4" source="18" target="37" edge="1">
                    <mxGeometry relative="1" as="geometry"/>
                </mxCell>
                <mxCell id="18" value="Submit Success" style="html=1;align=center;verticalAlign=top;rounded=1;absoluteArcSize=1;arcSize=10;dashed=0;fillColor=#B3B3B3;fontColor=#FFFFFF;strokeColor=#B3B3B3;labelBackgroundColor=#B3B3B3;" parent="4" vertex="1">
                    <mxGeometry x="51" y="310" width="98" height="30" as="geometry"/>
                </mxCell>
                <mxCell id="28" style="edgeStyle=none;html=1;exitX=0.5;exitY=1;exitDx=0;exitDy=0;entryX=0.5;entryY=0;entryDx=0;entryDy=0;fontColor=#FFFFFF;strokeColor=#B3B3B3;" parent="4" source="25" target="27" edge="1">
                    <mxGeometry relative="1" as="geometry"/>
                </mxCell>
                <mxCell id="25" value="View Score&amp;nbsp;" style="html=1;align=center;verticalAlign=top;rounded=1;absoluteArcSize=1;arcSize=10;dashed=0;fillColor=#B3B3B3;fontColor=#FFFFFF;strokeColor=#B3B3B3;" parent="4" vertex="1">
                    <mxGeometry x="40" y="506" width="150" height="30" as="geometry"/>
                </mxCell>
                <mxCell id="27" value="" style="ellipse;html=1;shape=endState;fillColor=#B3B3B3;strokeColor=#B3B3B3;" parent="4" vertex="1">
                    <mxGeometry x="100" y="566" width="30" height="30" as="geometry"/>
                </mxCell>
                <mxCell id="44" style="edgeStyle=none;html=1;exitX=0;exitY=0.5;exitDx=0;exitDy=0;entryX=0;entryY=0.5;entryDx=0;entryDy=0;fontColor=#FFFFFF;strokeColor=#B3B3B3;labelBackgroundColor=#B3B3B3;" parent="4" source="37" target="11" edge="1">
                    <mxGeometry relative="1" as="geometry">
                        <Array as="points">
                            <mxPoint x="10" y="385"/>
                            <mxPoint x="10" y="185"/>
                        </Array>
                    </mxGeometry>
                </mxCell>
                <mxCell id="37" value="" style="rhombus;fillColor=#B3B3B3;strokeColor=#B3B3B3;labelBackgroundColor=#B3B3B3;" parent="4" vertex="1">
                    <mxGeometry x="85" y="370" width="30" height="30" as="geometry"/>
                </mxCell>
                <mxCell id="53" value="View Exam/Quiz" style="html=1;align=center;verticalAlign=top;rounded=1;absoluteArcSize=1;arcSize=10;dashed=0;fillColor=#B3B3B3;strokeColor=#B3B3B3;fontColor=#FFFFFF;" parent="4" vertex="1">
                    <mxGeometry x="40" y="690" width="150" height="30" as="geometry"/>
                </mxCell>
                <mxCell id="62" style="edgeStyle=none;html=1;exitX=0.5;exitY=1;exitDx=0;exitDy=0;entryX=0.5;entryY=0;entryDx=0;entryDy=0;strokeColor=#B3B3B3;fontColor=#FFFFFF;" parent="4" source="59" target="61" edge="1">
                    <mxGeometry relative="1" as="geometry"/>
                </mxCell>
                <mxCell id="59" value="View Score&amp;nbsp;" style="html=1;align=center;verticalAlign=top;rounded=1;absoluteArcSize=1;arcSize=10;dashed=0;fillColor=#B3B3B3;fontColor=#FFFFFF;strokeColor=#B3B3B3;" parent="4" vertex="1">
                    <mxGeometry x="40" y="820" width="150" height="30" as="geometry"/>
                </mxCell>
                <mxCell id="61" value="" style="ellipse;html=1;shape=endState;fillColor=#B3B3B3;strokeColor=#B3B3B3;" parent="4" vertex="1">
                    <mxGeometry x="100" y="880" width="30" height="30" as="geometry"/>
                </mxCell>
                <mxCell id="41" style="edgeStyle=none;html=1;exitX=0.5;exitY=1;exitDx=0;exitDy=0;entryX=0.5;entryY=0;entryDx=0;entryDy=0;fontColor=#FFFFFF;fillColor=none;strokeColor=#B3B3B3;labelBackgroundColor=#B3B3B3;" parent="2" source="37" target="17" edge="1">
                    <mxGeometry relative="1" as="geometry">
                        <Array as="points">
                            <mxPoint x="320" y="420"/>
                            <mxPoint x="120" y="420"/>
                        </Array>
                    </mxGeometry>
                </mxCell>
                <mxCell id="43" value="Deadline meet" style="edgeLabel;html=1;align=center;verticalAlign=bottom;resizable=0;points=[];fontColor=#FFFFFF;labelBackgroundColor=#B3B3B3;" parent="41" vertex="1" connectable="0">
                    <mxGeometry x="-0.3689" relative="1" as="geometry">
                        <mxPoint as="offset"/>
                    </mxGeometry>
                </mxCell>
                <mxCell id="54" style="edgeStyle=none;html=1;exitX=1;exitY=0.5;exitDx=0;exitDy=0;entryX=0;entryY=0.5;entryDx=0;entryDy=0;strokeColor=#B3B3B3;fontColor=#FFFFFF;" parent="2" source="51" target="53" edge="1">
                    <mxGeometry relative="1" as="geometry"/>
                </mxCell>
                <mxCell id="56" style="edgeStyle=none;html=1;exitX=0.5;exitY=1;exitDx=0;exitDy=0;entryX=0.5;entryY=0;entryDx=0;entryDy=0;strokeColor=#B3B3B3;fontColor=#FFFFFF;" parent="2" source="53" target="55" edge="1">
                    <mxGeometry relative="1" as="geometry">
                        <Array as="points">
                            <mxPoint x="335" y="740"/>
                            <mxPoint x="120" y="740"/>
                        </Array>
                    </mxGeometry>
                </mxCell>
                <mxCell id="60" style="edgeStyle=none;html=1;exitX=1;exitY=0.5;exitDx=0;exitDy=0;strokeColor=#B3B3B3;fontColor=#FFFFFF;" parent="2" source="57" target="59" edge="1">
                    <mxGeometry relative="1" as="geometry"/>
                </mxCell>
                <mxCell id="32" value="Deadline" style="html=1;verticalAlign=bottom;labelBackgroundColor=#000000;endArrow=none;endFill=0;endSize=6;align=left;fontColor=#FFFFFF;dashed=1;strokeColor=#B3B3B3;" parent="1" edge="1">
                    <mxGeometry x="-1" relative="1" as="geometry">
                        <mxPoint x="40" y="399" as="sourcePoint"/>
                        <mxPoint x="480" y="399" as="targetPoint"/>
                    </mxGeometry>
                </mxCell>
            </root>
        </mxGraphModel>
    </diagram>
</mxfile>